<svg version="1.0" xmlns="http://www.w3.org/2000/svg"
 width="18.000000pt" height="18.000000pt" viewBox="0 0 18.000000 18.000000"
 preserveAspectRatio="xMidYMid meet">

<g transform="translate(0.000000,18.000000) scale(0.100000,-0.100000)"
fill="#000000" stroke="none">
<path d="M22 157 c-26 -28 -28 -54 -6 -86 14 -19 23 -22 58 -18 34 3 46 -1 71
-22 l30 -26 -26 30 c-21 25 -25 37 -22 71 4 35 1 44 -18 58 -33 22 -62 20 -87
-7z m80 -4 c20 -18 24 -63 6 -81 -29 -29 -98 -1 -98 40 0 23 34 58 57 58 9 0
25 -7 35 -17z"/>
</g>
</svg>
